/* XPM */
static char *_e398059d1d0471adb809f2022faf31dshHWpnoSnCSX5xod[] = {
/* columns rows colors chars-per-pixel */
"64 64 16 1 ",
"  c black",
". c #261819",
"X c #2B373B",
"o c gray20",
"O c #4A2229",
"+ c #202245",
"@ c #464646",
"# c #7A5356",
"$ c #496E7A",
"% c #913A49",
"& c #DE4B64",
"* c #E35F75",
"= c #6CC3D9",
"- c #FFA3B1",
"; c #99D9EA",
": c white",
/* pixels */
"o +@@o +XXXXXXXXXXXXXXXXXXXXXXXXXXXXXXXXXXXXXXXXXXXXXXXX+ o@@+ o",
"o +@@o +XXXXXXXXXXXXXXXXXXXXX$$$$$$XXXXXXXXXXXXXXXXXXXXX+ o@@+ o",
"o +@@o +XXXXXXXXXXXXXXXXXXXX$$$$$$$$XXXXXXXXXXXXXXXXXXXX+ o@@+ o",
"o +@@o +XXXXXXXXXXXXXXXXXXX$$$====$$$XXXXXXXXXXXXXXXXXX+  o@@+ o",
"o +@@@o +XXXXXXXXXXXXXXXXXX$$=;;;;=$$XXXXXXXXXXXXXXXXXX+ o@@@+ o",
"o +@@@o +XXXXXXXXXXXXXXXXX$$=;;::;;=$$XXXXXXXXXXXXXXXXX+ o@@@+ o",
"o +@@@o +XXXXXXXXXXXXXXXXX$$=;::::;=$$XXXXXXXXXXXXXXXXX+ o@@@+ o",
"o +@@@o +XXXXXXXXXXXXXXXXX$$=;::::;=$$XXXXXXXXXXXXXXXXX+ o@@+  o",
"@o +@@o +XXXXXXXXXXXXXXXXX$$=;::::;=$$XXXXXXXXXXXXXXXXX+ o@@+ o@",
"@o +@@o +XXXXXXXXXXXXXXXXX$$=;::::;=$$XXXXXXXXXXXXXXXXX+ o@@+ o@",
"@o +@@o +XXXXXXXXXXXXXXXXX$$=;::::;=$$XXXXXXXXXXXXXXXXX+ o@@+ o@",
"@o +@@o +XXXXXXXXXXXXXXXXX$$=;::::;=$$XXXXXXXXXXXXXXXX+  o@@+ o@",
"@o +@@@o +XXXXXXXXXXXXXXXX$$=;::::;=$$XXXXXXXXXXXXXXXX+ o@@@+ o@",
"@o +@@@o +XXXXXXXXXXXXXXXX$$=;::::;=$$XXXXXXXXXXXXXXXX+ o@@@+ o@",
"@o +@@@o +XXXXXXXXXXXXXXXX$$=;::::;=$$XXXXXXXXXXXXXXXX+ o@@@+ o@",
"@o +@@@o +XXXXXXXXXXXXXXXX$$=;::::;=$$XXXXXXXXXXXXXXXX+ o@@@+ o@",
"@o +@@@o +XXXXXXXXXXXXXXXX$$=;;::;;=$$XXXXXXXXXXXXXXXX+ o@@@+ o@",
"@o +@@@o +XXXXXXXXXXXXXXXXX$$=;;;;=$$XXXXXXXXXXXXXXXXX+ o@@@+ o@",
"@o +@@@o +XXXXXXXXXXXXXXXXX$$$====$$$XXXXXXXXXXXXXXXX+  o@@@+ o@",
"@o +@@@@o +XXXXXXXXXXXXXXXXX$$$$$$$$XXXXXXXXXXXXXXXXX+ o@@@@+ o@",
"@o +@@@@o +XXXXXXXXXXXXXXXXX$$$$$$$$XXXXXXXXXXXXXXXXX+ o@@@@+ o@",
"@o +@@@@o +XXXXXXXXXXXXXXXX$$$====$$$XXXXXXXXXXXXXXXX+ o@@@@+ o@",
"@o +@@@@o +XXXXXXXXXXXXXXX$$$==;;==$$$XXXXXXXXXXXXXXX+ o@@@+  o@",
"@o  +@@@o +XXXXXXXXXXXXXX$$$==;::;==$$$XXXXXXXXXXXXXX+ o@@@+  o@",
"@@o +@@@o +XXXXXXXXXXXXXX$$==;::::;==$$XXXXXXXXXXXXXX+ o@@@+ o@@",
"@@o +@@@o +XXXXXXXXXXXXXX$$=;::::::;=$$XXXXXXXXXXXXXX+ o@@@+ o@@",
"@@o +@@@o +XXXXXXXXXXXXXX$$==;::::;==$$XXXXXXXXXXXXX+  o@@@+ o@@",
"@@o +@@@@o +XXXXXXXXXXXXX$$$==;::;==$$$XXXXXXXXXXXXX+ o@@@@+ o@@",
"@@o +@@@@o +XXXXXXXXXXXXXX$$$==;;==$$$XXXXXXXXXXXXXX+ o@@@@+ o@@",
"@@o +@@@@o +XXXXXXXXXXXXXXX$$$====$$$XXXXXXXXXXXXXXX+ o@@@@+ o@@",
"@@o +@@@@o +XXXXXXXXXXXXXXXX$$$$$$$$XXXXXXXXXXXXXXXX+ o@@@@+ o@@",
"@@o +@@@@o +XXXXXXXXXXXXXXXXX$$$$$$XXXXXXXXXXXXXXXXX+ o@@@@. o@@",
"@@o .@@@@o +XXXXXXXXXXXXXXXXXXXXXXXXXXXXXXXXXXXXXXXX+ o@@@@. o@@",
"@@o .@@@@o +XXXXXXXXXXXXXXXXXXXXXXXXXXXXXXXXXXXX@@@@+ o@@@@. o@@",
"@@o .@@@@o +@@@XXXXXXXXXXXXXXXXXXXXXXXXXXXXX@@@@@@@@. o@@@@. o@@",
"@@o .@@@@o .@@@@@@@@@XXXXXXXXXXXXXXXXXXX@@@@@@@@@@@@.  o@@@. o@@",
"@@o .@@@o  .@@@@@@@@@@@@@@@XXXXXXXXX@@@@@@@@@@@@@@@@@. o@@@. o@@",
"@@o .@@@o .@@@@@@@@@@@@@@@@@@@@@@@@@@@@@@@@@@@@@@@@@@. o@@@. o@@",
"@@o .@@@o .@@@@@@@@@@@@@@@@@@@@@@@@@@@@@@@@@@@@@@@@@@. o@@@. o@@",
"@@o .@@@o .@@@@@@@@@@@@@@@@@@@@@@@@@@@@@@@@@@@@@@@@@@. o@@@. o@@",
"@o  .@@@o .@@@@@@@@@@@@@@@@@@@@@@@@@@@@@@@@@@@@@@@@@@. o@@@.  o@",
"@o .@@@@o .@@@@@@@@@@@@@@@@@@@@@@@@@@@@@@@@@@@@@@@@@@.  o@@@. o@",
"@o .@@@@o .@@@@@@@@@@@@@@@@@#########@@@@@@@@@@@@@@@@@. o@@@. o@",
"@o .@@@@o .@@@@@@@@@@@@##################@@@@@@@@@@@@@. o@@@. o@",
"@o .@@@o  .@@@@@@@@##########################@@@@@@@@@. o@@@. o@",
"@o .@@@o .##@@###################################@@@@@. o@@@. o@",
"@o .@@@o .#########################################@@@. o@@@. o@",
"@o .@@@o .############################################.  o@@. o@",
"@o .@@@o .#############################################. o@@. o@",
"@o .@@@o .#########OOOOOOOOOOOOOOOOOOOOOOOOOOO#########. o@@. o@",
"@o .@@@o .#######OOO%%%%%%%%%%%%%%%%%%%%%%%%%OOO#######. o@@. o@",
"@o .@@o ..#####OO%%%%%%%%%%%%%%%%%%%%%%%%%%%%%%%OO#####. o@@. o@",
"@o .@@o .#####%%%%%%%%%%%%%%%%%%%%%%%%%%%%%%%%%%%%%####. o@@. o@",
"@o .@@o .####%*************************************%###. o@@. o@",
"@o .@@o .####**                                   **####. o@. o@",
"@o .@@o .###** ----------------------------------- **###. o@. o@",
"o .@@@o .##** --:::::::::::::::::::::::::::::::::-- **##. o@@. o",
"o .@@@o .#** #-:::::::::::::::::::::::::::::::::::-# **#. o@@. o",
"o .@@@o .#&&o --:::::::::::::::::::::::::::::::::-- o&&#. o@@. o",
"o .@@o ..#%&&o ----------------------------------- o&&%#. o@@. o",
"o .@@o .###%&&o                                   o&&%###. o@. o",
"o .@@o .###%%&&ooooooooooooooooooooooooooooooooooo&&%%###. o@. o",
"o .@@o .####%%&&&&&&&&&&&&&&&&&&&&&&&&&&&&&&&&&&&&&%%####. o@. o",
"o .@@o .######%%%%%%%%%%%%%%%%%%%%%%%%%%%%%%%%%%%%%######. o@. o"
};
