/* XPM */
static char *my64wall[] = {
/* columns rows colors chars-per-pixel */
"64 64 171 2 ",
"   c #130E12",
".  c #1E151E",
"X  c #120F24",
"o  c #1C1623",
"O  c #1D1825",
"+  c #171328",
"@  c #1C172F",
"#  c #191733",
"$  c #1D1833",
"%  c #1C1A3C",
"&  c #201721",
"*  c #251C26",
"=  c #251D29",
"-  c #291F29",
";  c #241B34",
":  c #291F36",
">  c #251D3B",
",  c #291F3B",
"<  c #2C222C",
"1  c #30262F",
"2  c #272037",
"3  c #2E2433",
"4  c #28223E",
"5  c #312631",
"6  c #332933",
"7  c #382D36",
"8  c #372B38",
"9  c #3A2D3B",
"0  c #3D303E",
"q  c #1B1C45",
"w  c #1C1F4D",
"e  c #231D42",
"r  c #231D48",
"t  c #1D204D",
"y  c #1E2152",
"u  c #202047",
"i  c #2C2245",
"p  c #27244A",
"a  c #2C244C",
"s  c #352C43",
"d  c #392E44",
"f  c #372E4C",
"g  c #3A2F4C",
"h  c #3F3140",
"j  c #202153",
"k  c #2A2354",
"l  c #23245D",
"z  c #2D255C",
"x  c #312752",
"c  c #30275E",
"v  c #33295D",
"b  c #3A3254",
"n  c #3C325C",
"m  c #222663",
"M  c #2E2764",
"N  c #2B2865",
"B  c #232768",
"V  c #24296D",
"C  c #332964",
"Z  c #332A6A",
"A  c #3E3367",
"S  c #252A74",
"D  c #352D73",
"F  c #392F76",
"G  c #372F79",
"H  c #392F7A",
"J  c #373577",
"K  c #3A317E",
"L  c #423544",
"P  c #463847",
"I  c #453649",
"U  c #48374A",
"Y  c #473948",
"T  c #4B3C4C",
"R  c #4D3D53",
"E  c #4F3F5B",
"W  c #503F53",
"Q  c #453963",
"!  c #483F66",
"~  c #403568",
"^  c #423661",
"/  c #4E404E",
"(  c #4F4051",
")  c #544355",
"_  c #564559",
"`  c #58455B",
"'  c #574858",
"]  c #5B4B5C",
"[  c #604D5F",
"{  c #5E4D61",
"}  c #54456E",
"|  c #604E62",
" . c #654E69",
".. c #635266",
"X. c #665469",
"o. c #68566B",
"O. c #6B596F",
"+. c #624D76",
"@. c #6E5B71",
"#. c #725E75",
"$. c #736076",
"%. c #766279",
"&. c #79657D",
"*. c #292F81",
"=. c #2C3085",
"-. c #2D338E",
";. c #3E3485",
":. c #37358F",
">. c #3B358B",
",. c #3D3B89",
"<. c #353284",
"1. c #2E3595",
"2. c #2F369A",
"3. c #323696",
"4. c #313798",
"5. c #413686",
"6. c #423888",
"7. c #4A4087",
"8. c #4B418B",
"9. c #534285",
"0. c #5F538D",
"q. c #574F96",
"w. c #685183",
"e. c #715D85",
"r. c #60589B",
"t. c #7C6780",
"y. c #7D6880",
"u. c #7E6982",
"i. c #7E6982",
"p. c #67619F",
"a. c #69639F",
"s. c #7A779D",
"d. c #73709A",
"f. c #6C66A1",
"g. c #726DA2",
"h. c #7B7BA4",
"j. c #816C85",
"k. c #856F89",
"l. c #86708A",
"z. c #88728B",
"x. c #8B758E",
"c. c #89738D",
"v. c #8C7690",
"b. c #8F7893",
"n. c #917A96",
"m. c #947D96",
"M. c #927A95",
"N. c #957D99",
"B. c #967E9A",
"V. c #807BB0",
"C. c #908592",
"Z. c #99819D",
"A. c #9D85A2",
"S. c #8F8DB4",
"D. c #918DBA",
"F. c #A087A4",
"G. c #A087A4",
"H. c #A088A4",
"J. c #A088A5",
"K. c #A188A6",
"L. c #A68CAA",
"P. c #A88EAD",
"I. c #A98FAE",
"U. c #A98FAF",
"Y. c #A88EAD",
"T. c #AA90AF",
"R. c #AA90AF",
"E. c #AB90B0",
"W. c #AB91B0",
"Q. c #A3A3BB",
"!. c #BCBCD6",
/* pixels */
";.;.;.;.;.;.;.;.;.;.;.;.;.;.;.;.;.;.;.;.;.;.;.;.;.;.;.;.;.;.;.;.;.;.;.;.;.;.;.;.;.;.;.;.;.;.;.;.;.;.;.;.;.;.;.;.;.;.;.;.;.;.;.;.",
";.;.;.;.;.;.;.;.;.;.;.;.;.;.;.;.;.;.;.;.;.;.;.;.;.;.;.;.;.;.;.;.;.;.;.;.;.;.;.;.;.;.;.;.;.;.;.;.;.;.;.;.;.;.;.;.;.;.;.;.;.;.;.;.",
";.;.;.;.;.;.;.;.;.;.;.;.;.;.;.;.;.;.;.;.;.;.;.;.;.;.;.;.;.;.;.;.;.;.;.;.;.;.;.;.;.;.;.;.;.;.;.;.;.;.;.;.;.;.;.;.;.;.;.;.;.;.;.;.",
";.;.;.;.;.;.;.;.;.;.;.;.;.;.;.;.;.;.;.;.;.;.;.;.;.;.;.;.;.;.;.;.;.;.;.;.;.;.;.;.;.;.;.;.;.;.;.;.;.;.;.;.;.;.;.;.;.;.;.;.;.;.;.;.",
";.;.;.;.;.;.;.;.;.;.;.;.;.;.;.;.;.;.;.;.;.;.;.;.;.;.;.;.;.;.;.;.;.;.;.;.;.;.;.;.;.;.;.;.;.;.;.;.;.;.;.;.;.;.;.;.;.;.;.;.;.;.;.;.",
";.;.;.;.;.;.;.;.;.;.;.;.;.;.;.;.;.;.;.;.;.;.;.;.;.;.;.;.;.;.;.;.;.;.;.;.;.;.;.;.;.;.;.;.;.;.;.;.;.;.;.;.;.;.;.;.;.;.;.;.;.;.;.;.",
";.;.;.;.;.;.;.;.;.;.;.;.;.;.;.;.;.;.;.;.;.;.;.;.;.;.;.;.;.;.;.;.;.;.;.;.;.;.;.;.;.;.;.;.;.;.;.;.;.;.;.;.;.;.;.;.;.;.;.;.;.;.;.;.",
";.;.;.;.;.;.;.;.;.;.;.;.;.;.;.;.;.;.;.;.;.;.;.;.;.;.;.;.;.;.;.;.;.;.;.;.;.;.;.;.;.;.;.;.;.;.;.;.;.;.;.;.;.;.;.;.;.;.;.;.;.;.;.;.",
";.;.;.;.;.;.;.;.;.;.;.;.;.;.;.;.;.;.;.;.;.;.;.;.;.;.;.;.;.;.;.;.;.;.;.;.;.;.;.;.;.;.;.;.;.;.;.;.;.;.;.;.;.;.;.;.;.;.;.;.;.;.;.;.",
";.;.;.;.;.;.;.;.;.;.;.;.;.;.;.;.;.;.;.;.;.;.;.;.;.;.;.;.;.;.;.;.;.;.;.;.;.;.;.;.;.;.;.;.;.;.;.;.;.;.;.;.;.;.;.;.;.;.;.;.;.;.;.;.",
";.;.;.;.;.;.;.;.;.;.;.;.;.;.;.;.;.;.;.;.;.;.;.;.;.;.;.;.;.;.;.;.;.;.;.;.;.;.;.;.;.;.;.;.;.;.;.;.;.;.;.;.;.;.;.;.;.;.;.;.;.;.;.;.",
";.;.;.;.;.;.;.;.;.;.;.;.;.;.;.;.;.;.;.;.;.;.;.;.;.;.;.;.;.;.;.;.;.;.;.;.;.;.;.;.;.;.;.;.;.;.;.;.;.;.;.;.;.;.;.;.;.;.;.;.;.;.;.;.",
";.;.;.;.;.;.;.;.;.;.;.;.;.;.;.;.;.;.;.;.;.;.;.;.;.;.;.;.;.;.;.;.;.;.;.;.;.;.;.;.;.;.;.;.;.;.;.;.;.;.;.;.;.;.;.;.;.;.;.;.;.;.;.;.",
";.;.;.;.;.;.;.;.;.;.;.;.;.;.;.;.;.;.;.;.;.;.;.;.;.;.;.;.;.;.;.;.;.;.;.;.;.;.;.;.;.;.;.;.;.;.;.;.;.;.;.;.;.;.;.;.;.;.;.;.;.;.;.;.",
";.;.;.;.;.;.;.;.;.;.;.;.;.;.;.;.;.;.;.;.;.;.;.;.;.;.;.;.;.;.;.;.;.;.;.;.;.;.;.;.;.;.;.;.;.;.;.;.;.;.;.;.;.;.;.;.;.;.;.;.;.;.;.;.",
"K ;.;.;.;.;.;.;.;.;.;.;.;.;.;.;.;.;.;.;.;.;.;.;.;.;.;.;.;.;.;.;.;.;.;.;.;.;.;.;.;.;.;.;.;.;.;.;.;.;.;.;.;.;.;.;.;.;.;.k e e e e ",
"% F ;.;.;.;.;.;.;.;.K k k k M ;.;.;.;.;.;.;.;.;.;.;.;.;.;.;.;.;.;.;.;.;.;.;.;.;.;.;.;.;.;.;.;.;.;.K C C v Z ;.;.5.G r O P / / / ",
"8 v ;.;.;.;.;.;.;.k # < L 0 O % Z ;.;.;.;.;.;.;.;.;.;.;.;.;.;.;.;.;.;.;.;.;.;.;.;.;.;.;.;.;.;.;.K Q %.&.$.d k G C + 7 / ` ` ` ` ",
"` s K ;.;.;.;.;.k o P ` ` ` ) 8 O # M K ;.K K ;.K K K K K K K K K K K K ;.K K K K K K K K K ;.H ~ c.T.T.T.c.3 o 3 0 ` ` ` ` ` ` ",
"` T a ;.;.;.;.;.> P ` ` ` ` ` ) < * 3 f f f f f f f f f f f f f f f f f f f f f f f f f f f f + T I.I.I.I.I.l.T ' ` ` ` ` ` ` ` ",
"` ` 7 i C ;.;.Z s ` ` ` ` ` ` ( T A.F.A.A.A.F.H.F.F.F.H.H.H.H.H.H.H.H.H.H.H.H.H.A.B.m.m.Z.F.A.T #.I.I.I.I.I.T.#.T ` ` ` ` ` ` ` ",
"` ` ) T 3 c C X 7 T ) ` ` ` ` / L c.c.c.c.c.c.c.c.c.c.y.y.y.y.y.y.y.y.y.y.y.y.y.#.s f f L y.j.T B.I.I.I.I.I.T.$.P ` ` ` ` ` ` ` ",
"` ` ` ` T 8 5 8 8 5 5 L L L P h * 5 g A A A A A A ~ E * o k k k k k k k k U - *   e ;.K r * - < m.T.I.I.T.T.T.m./ ' ` ` ` ` ` ` ",
"` ` ` ` ` T 7 _ ` ) 0 l.m.m.m.c.) L n ;.;.;.;.;.;.5.+.7 ; ;.;.;.;.;.;.;.5.w.W = # F ;.;.Z < 7 = T Z.T.I.T.T.T.P.) ) ` ` ` ` ` ` ",
"` ` [ ` ` ) < T ` ` T %.W.I.I.I.P.m.Q ;.;.;.;.;.;.5.+.7 ; ;.;.;.;.;.;.;.;.w.#.3 k ;.;.;.C - 7 5 * T m.B.B.B.B.P.) ) ` ` ` ) ) ) ",
"` ` ` ` ` / 5 ) ` ` T T Z.I.I.I.I.B.Q ;.q.a.f.r.;.5.+.7 ; ;.;.;.;.;.;.;.5.h.C.5 k ;.;.;.C < 7 7 5 * 5 7 7 5 8 o.L ) ) L L 7 ) ` ",
") ` ` ` ` P 0 ` ` ` ) 8 l.T.I.I.I.B.Q ;.g.Q.!.D.;.5.+.7 ; K ;.;.;.;.;.;.;.8.e.5 k ;.;.;.k - 7 7 7 * < 7 5 7 5 * . < 8 ` j.j.H.I.",
"5 L P L L < T ` ` ` ` d | P.I.I.I.Z.Q ;.V.!.Q.d.;.5.+.7 ; K ;.;.;.;.;.;.;.9. .< M ;.;.K ; < 7 7 7 * 5 7 7 7 7 5 * & y.P.W.T.I.I.",
"l.l.l.c.$.7 L U ) ` _ 5 T P.I.I.A.%.n ;.p.S.s.g.;.5.+.7 ; K ;.;.;.;.;.;.;.9.) * k ;.;.;.; 7 7 7 7 * < 7 7 7 7 7 7 - #.I.I.I.I.I.",
"T.T.W.A.T 8 L 7 5 R L T B.P.A.B.( * ; a C ;.5.6.;.5.+.7 ; K ;.;.;.;.;.;.;.9.) * c ;.;.;.; 5 7 7 5 * 3 7 7 7 7 7 7 < L H.I.I.I.I.",
"I.I.I.%.8 ` ` ` 8 7 &.A.F.` 8 8 < 5 < < = i ;.;.;.5.+.7 ; ;.;.;.;.;.;.;.;.9.) * k ;.;.;.: 7 7 7 < * 5 7 7 7 7 7 7 5 h F.I.P.I.I.",
"I.I.A.T T ` ` ` ) 7 j.B._ * < 5 7 7 7 7 1 , ;.;.;.5.+.7 ; ;.;.;.;.;.;.;.;.9.) = c ;.;.;.4 5 7 5 * * < < 5 7 < < < < h H.I.P.I.I.",
"P.F.` T ` ` ` ` ` < < 7 < 7 7 7 7 7 7 7 < > ;.;.;.5.+.7 ; ;.;.;.;.;.;.;.;.7.R * M ;.;.;.C = < < T ) ) L * < 5 7 7 7 7 #.A.I.I.I.",
"T L < ) ` ` ` ` ` P * 7 7 7 7 7 7 7 7 7 < > ;.;.;.5.+.7 ; ;.;.;.;.;.;.;.4.,.L * k ;.;.;.K i @.k.P.I.I.k.8 T ) ` ` ` / 8 ` v.m.m.",
"< < * P ) ) ` ` ` ` h < 7 7 7 7 7 7 7 7 < > ;.;.;.5.+.7 ; ;.;.;.;.:.4.4.2.,.L = k ;.;.;.;.x #.W.I.I.T.k.L ` ` ` T h L 0 5 * * * ",
"L L h T T L 0 T ) ` ) < < 7 7 7 7 7 7 7 * M ;.;.;.5.+.7 ; =.4.4.2.2.2.2.2.,.L * k ;.;.;.;.Z R P.I.I.T.k.L ` ` ) < < < < < < & * ",
"H.H.H.F.H.m.o.o.) T ` T = - < < < < < < e <.;.:.:.;.} 7 < m 2.2.2.2.2.2.2.,.L = c ;.;.;.;.H E P.I.I.T.c.8 ) ` L * 7 7 7 7 7 5 5 ",
"I.I.I.I.I.I.I.W.c.8 ) ` P 5 L L T P T 8 p 1.4.2.2.4.! 7 < l 2.2.2.2.2.1.=.J L * k G G ;.;.Z R P.I.I.I.H.) L ) 5 5 7 7 7 7 7 7 7 ",
"I.I.I.I.I.I.I.I.P._ L ) L ..P.P.P.P.P.Z.( l 1.2.2.4.! 7 < l 2.2.2.1.*.m y a 8 * % t y M K a o.m.o...| @.y.8 0 < 7 7 7 7 7 7 7 5 ",
"P.P.P.P.P.P.P.P.T.#.- ) ) &.I.P.I.I.I.I.Z.b 1.2.2.4.! 7 < l 2.1.*.m y w w p 8 < # w w t k d { o.v.m.c.T k.) & 3 7 7 7 7 7 7 7 5 ",
"T T T T T T T T c.%...P.P.I.I.I.I.I.I.I.F.n 1.1.-.-.Q 7 < q B m y w w w w p 8 7 O q w w % O.I.P.I.I.I.#.T { * 7 7 7 7 7 7 7 7 7 ",
"< < < < < < < * _ #.y.T.I.I.P.P.P.P.I.I.A.b S V y y s 7 < # w w w w w w w p 8 7 O q w w % @.W.I.I.P.I.P.#.< * 5 7 7 7 7 7 7 7 7 ",
"7 7 7 7 7 7 7 3 5 ) &.W.P.l.( L L l.I.I.F.d w w w w s 7 < # w w w w w w w p 8 7 o q w w % O.W.I.I.I.P.I.P.c.) 5 - < < < < < 1 5 ",
"7 7 7 7 7 7 7 7 < * %.l.) < - < * ) H.I.F.d w w w t s 7 < # w w w w w w w p 8 7 O q w w % @.W.I.P.P.P.P.I.I.P.c.) * 7 h ) ' ' ` ",
"7 7 7 7 7 7 7 7 7 < 7 3 - 5 7 7 < 7 A.T.F.d w w w t s 7 < # w w w w w w w p 8 7 < # w w % O.W.I.I.I.I.I.I.I.T.I._ 5 ) ` ` ` ` ` ",
"7 7 7 7 7 7 7 7 7 5 * < 7 7 7 7 7 7 ) o.m.s w w w t s 7 < # w w w w w w w e ; 5 5 = 4 4 2 ( Z.I.I.I.I.I.I.I.I.P.T P ' ` ` ` ` ` ",
"7 7 7 7 7 7 7 7 7 < * 5 7 7 7 7 7 5 . . < O % % % % 3 < - # w w w w w w w 4 ( c.m.m.m.m.m.l.o.P.I.I.I.I.I.I.T.B.L ) ` ` ` ` ` ` ",
"7 7 7 7 5 < < < - * < < < 5 7 7 7 < * * - < < < < < < * & # q q q q q q q h A.I.I.I.I.I.T.Z.{ P.I.I.I.I.I.T.F.o.7 ) ` ` ` ` ` ` ",
"< < < < * 5 8 8 < - < 7 8 7 < < < * - 7 7 7 7 7 7 7 7 5 < & = = = = = = = * #.I.I.I.I.I.I.Z.{ P.I.I.I.P.F.&.L < * 3 P _ ` ` ` ` ",
"y.y.y.y.) T ` ` ) T T ` ` ) T 7 * - 7 7 7 7 7 7 7 7 7 7 < - 7 7 7 7 7 7 7 < h A.I.I.I.I.T.Z.) c.v.v.c.) L - < 5 5 < * 3 T T ( / ",
"I.I.I.W.o.T ` ` ` ` ` ` ` ` ` ` L < 7 7 7 7 7 7 7 7 7 7 < = 7 7 7 7 7 7 7 5 - @.H.F.F.A.#.{ 7 h L L L 5 * - 7 7 7 7 5 < - < < < ",
"P.P.P.I.o.T ` ` ` ` ` ` ` ` ` ` P < 7 7 < < < < < < 5 7 < = 7 7 7 7 7 7 7 7 < < T T T T T T R _ ` ` ` _ U - - 7 7 7 7 7 7 7 7 7 ",
"I.I.I.T.o.T ` ` ` ` ` ` ` ` _ ) h * < < * 5 8 8 8 < < 7 * - 7 7 7 7 7 7 7 7 3 3 W ) ) ) ` ` ` ` ` ` ` ` ` T - - 7 7 7 7 7 7 7 7 ",
"I.I.I.T.o.T ` ` ` ` ` ` ` ` 7 8 5 5 T R T ) ` _ ` h * < & - 5 7 5 7 7 7 7 7 5 * U ` _ _ ` ` ` ` ` ` ` ` ` ` T * < 7 7 7 7 7 7 7 ",
"I.I.T.P.| T | ` ` ` ` ` ` ) 7 ) _ _ ` ` ` ` _ _ ` h * < - * < 7 5 5 7 7 7 7 7 < < 8 8 8 8 _ ` ` ` ` ` ` ` W 8 * - 7 7 7 7 7 7 7 ",
"P.P.I.b.8 ) ` ` ` ` ` ` ` ) 8 _ ` ` ` ` ` _ _ ` ) 5 < 7 7 < < 7 7 7 7 7 7 7 7 5 - T ) ) 5 T ` ` ` ` ` _ L 7 ` #.3 < 5 3 5 5 7 7 ",
"T T T L - 5 5 5 5 5 5 5 7 T 5 T T T W ` _ _ _ ` T * 5 7 7 5 * < < < < < < < < 7 - ) ` ` h 8 ` ` ` W 8 5 h t.I.I.y.8 8 8 8 8 - < ",
"< < < < < < < < < < 5 < * L ` { { ) 5 W ` _ ` T - < 7 7 7 3 5 ' ` ` ` ` ` ` 8 - - 8 ' T 8 < 8 8 8 - * 8 B.P.I.I.P.A.A.A.A.c.8 W ",
"7 7 7 7 7 7 7 7 7 7 7 7 < ..W.I.I.P.` 8 T U L - - 7 7 7 7 7 7 y.W.I.I.I.I.T.v.8 * 5 T o.o.= < < < < 5 < %.I.P.P.I.I.I.I.T.o.8 _ ",
"7 7 7 7 7 7 7 7 7 7 7 7 < ..T.I.I.W.O.o - - - < 7 7 7 7 7 7 < #.T.P.P.P.I.I.T.#.T o.m.I.l.< 5 7 7 7 7 < L m.P.T.T.T.P.A.c.T W ` ",
"7 7 7 7 7 7 7 7 7 7 7 7 < ..I.P.I.W.O.< 7 7 7 7 7 7 7 7 7 7 < #.T.I.I.I.I.I.T.%.&.W.I.I.H.( < 7 7 7 7 5 * 5 ..y.y.j.@.L 0 L ` ` ",
"7 7 7 7 5 7 7 7 7 7 7 7 < h Z.I.I.T.#.* 7 7 7 7 7 7 5 < < < * #.T.I.I.I.I.I.T.%.&.W.I.I.I.` < 7 7 7 7 7 5 < < < < = 8 T _ _ ` ` ",
"7 7 7 7 5 5 5 7 7 7 7 7 5 < c.I.I.I.A.h < 7 7 7 7 7 < 8 ( ( ( k.T.I.I.I.I.P.T.%.&.T.I.I.I.#.5 7 7 7 7 7 7 7 7 7 7 - 8 ` ` ` ` ` ",
"7 7 7 7 5 5 5 7 7 7 7 7 5 < c.I.I.I.P.L < 7 7 7 7 7 < { P.P.P.P.I.I.I.I.I.P.I.B.B.I.I.I.I.Z.5 < 7 7 7 7 7 7 7 7 7 < < ) ` ` ` ` "
};