/* XPM */
static char * emptywall_xpm[] = {
"64 64 21 1",
" 	c #424242",
".	c #000000",
"+	c #444444",
"@	c #2E3192",
"#	c #5B6566",
"$	c #5B665D",
"%	c #00A651",
"&	c #676352",
"*	c #FFF200",
"=	c #494949",
"-	c #675252",
";	c #9E0B0F",
">	c #4C4C4C",
",	c #5E0508",
"'	c #660709",
")	c #C4C4C4",
"!	c #CCCCCC",
"~	c #303030",
"{	c #333333",
"]	c #363636",
"^	c #363032",
"         .           ..            .         ....          .+   ",
"      +..+.    +++++.++.++      +..+.+++++++.++++..+++++++.+.+++",
"   +++.++++.+ ++++..+++.+++++++..++++.++++..+++++++.+++++.+ .+++",
" ++...++++++.+++..++++++.+++++.++++++.+++.+++    +++.+++.+  +.++",
"+..++++++  ++.+.++++++++.+++..+++ ++++.+.++++++++ ++.+..++ +++..",
".+++++++++ +++.++++++++++.+.++++  +++++.++++++++++ ++.+++  +++++",
"@#++++++++ ++$%$++++ +++++.++++  +++++&*&++====+++++-;-++ +++++#",
"##++++++++ ++$$$++++  +++#@#+++ ++++++&&&=======++++---++++++++#",
"##+++++++++++$$$+++++ +++###+++++++++=&&&========+++---++++++++#",
"+++++++++++++++++++++  ++###+++++++===============++++++++++++++",
"+++++ +++++++++++++++  +++++++++=============>=====+++++=====+++",
"++++  ++++++++++++++++ +++++++=======>>>=====>>================+",
"+++   ++++======++++++ ++++++======>>>>>>====>>>>>>============+",
"++   +++============++ ++++++=====>>>>>>>===>>>>>>>>===========+",
"+   +++========>>====+++++++=====>>>>>>>>>==>>>>>>>>>======+++=+",
"+  +++===>>>==>>>>====++++++====>>>>>>>>>>==>>>>>>>>>>=>>===++++",
"  +++===>>>>>=>>>>>>==+++++===>>>>>>>>>>>===>>>>>>>>>>>>>>===+++",
" +++===>>>>>>=>>>>>>>==++====>>>>>>>>================>>>>>===++ ",
" ++==>>>>>>>>>>>>>>>>>======>>>>>======+++++++++++++====>>>===+ ",
"+++==>>>>>>>>>>>>>>>>>>====>>>>>====++++++++++++++++++==>>>===+ ",
"++==>>>>>>>>>>>>>>>>>>>>==>>>>====++++++++   +++++++++==>>>>==++",
"+==>>>>>>>>>>>>>>>>>>>>>=>>>====+++++         ++++++++=>>>>>===+",
"==>>>>>>>>>>>>>>>>>>>>>>=>>===++++++          +++++++==>>>>>>===",
"=>>>>>>>>>>>>>>>>>>>>>>>>>>=++++++++     +  ++++++====>>>>>>>===",
"=>>>>>>>>>>>>>>>>>>>>>>>>>>==++++++++++++++++++++==>>>>>>>>>>>==",
">>>>>>>>>>>>>>>>>>>>>>>>>>>>==+++++++++++++++++===>>>>>>>>>>>>>=",
">>>>>>>>>>>>>>=>>>>>>>>>>>>>>====+++++++++++=====>>>>>>>>>>>>>>=",
">>>>>>>>>>>>>===>>>>>>>>>>>>>>>>=============>>>>>>>>>>>>>>>>>>=",
">>>>>>>>======+=>>>>>>>>>>>>>>>>>>>>=>>>>>>>>>>>>>>>>>>>>>>>>>>=",
"=>>==>>====++++=>>>>>>>>>>>>>>>>>>>==>>>>>>>>>>>>>>>>>>>>>>>>>==",
"=========+++++===>>>>>>>>>>>=========>>>>>>>>>>>>>>>>>==========",
"======+++  +++===>>>>>>>>====+++++====>>>>>>>>>>>>>>===+++++>===",
"=++++++   ++======>>>>>===+++++++=======>>>>>>>>>>===+++++++++++",
"++++    ++========>>>>==++++ +++===========>=======++++    +++++",
",,,,,,,,,,,,,,''''''''',,,,,,,,,''''''''''''''''''',,,,,,,,,,,,,",
",,,,,,,,,,,,''''''''''''',,,,,'''''''''''''''''''''',,,,,,,,,,,,",
"....))))....!!!!....!!!!....!!!!....!!!!....!!!!....!)))....))))",
"....)))!....!!!!....!!!!....!!!!....!!!!....!!!!....!!))....)!!!",
"....)!!!....!!!!....!!!!....!!!!....!!!!....!!!!....!!!!....!!!!",
"....!!!!....!!!!....!!!!....!!!!....!!!!....!!!!....!!!!....!!!!",
"!!!!....!!!!....!!!!....!!!!....!!!!....!!!!....!!!!....!!!!....",
"!!!!....!!!!....!))!....!!!!....!!!!....!!!!....!!!!....!!!!....",
"!!!!....!!!!....)))!....!!!!....!!!!....!!!!....)!!!....!!!!....",
"!!!!....!!!!....))))....!!!!....!!!!....!!!!....))!!....!!!!....",
"''',,,,''''''',,,,,,,,,''''''''''''''''''''''''',,,'''''',''''''",
",,,,,,,,,,,,,,,,,,,,,,,,,,,,,,,,,,,,,,,,,,,,,,,,,,,,,''',,,,,,,,",
"~~~~~~~~~~~~~~~~~~~~~~~~~~~~~~~~~~~~~~~~~~~~~~~~~~~~~~~~~~~~~~~~",
"~~{]]~~~]]]]~]]]]{{{~~~~{{{{]]]~~~]]]{~~~]]]]{~~~~~{]]]{~~~]{{~~",
"~{]]]]~~]]]]]]]]]]]{{~~{]]]]]]]]~]]]]]{{]]]]]]]{~~{]]]]{~~]]]]{{",
"{]]]]]~]]]]]]]]]]]]]{~{]]]]]]]]]]]]]]]]]]]]]]]]]{~]]]]]]{~]]]]]{",
"{]]]]]]]]]]]]]]]]{]]]{]]]]]]]]]]]]]]]]]]]]]]]]]]]{]]]]]]{~]]]]]]",
"]]]]]]]]]]]]]]]]]{]]]]]]]]]]]]]]]]]]]]]]]]]]]]]]]]]]]]]]]{]]]]]]",
"]]]]]]]]]]]]]]]]]{{]]]]]{]]]]]]]]]]]]]]]{]]]]]]]]]]]]]]]]]]]]]]]",
"]]]]]]]]]{]]]]]]]~{]]]]]{{]]]]{]]]]]]]]]{]]]]]]]]]]]]]]]]]]]{]]]",
"]]]]]]]]]{]]]]]]{~{]]]]{~{]]]]{]]]]]]]]{~]]]]]{]]]]]]]{]]]]]{{]]",
"]]]]]]]]]~{]]]]]{~{{]]]{^{]]]{{{]]]]]]]{~{]]]]{]]]]]]{^]]]]{~{]]",
"{]]]]]]]{~{{]]]]{~~{{]{~^{]]]{~{]]]{]]]{^{]]]]{{]]]]{~^{]]]{~{]]",
"~{]]]]]]{~~{]]]]{^~{{{{~^{{]{{~{]]^{{]]~^{]]]]~{]]]]{~^{]]{{~{]]",
"^~{]]]]{~^~{]]]{{^~~{{{^^~{{{{^{]]^~{]{~^{]]]]~{{]]]{~^{]{{~^{]{",
"^~{{]]]{^^~{{]]{^^~~{{~^^^~{{{^~]]^^{]{^^{]]]]^~{]]{{^^{{{{~^~{~",
"^~~{]]]{^^~{{]]{^^~~~{~^^^~{{^^^{^^^~{{^^~{]]]^^{{]{~^^{{{~^^~{^",
"^^~~{{]{^^^~{{{^^^^~~~^^^^~~^^^^^^^^^{{^^^~{]^^^^{{{^^^^{~^^^^~^",
"^^^~~^{^^^^~~~^^^^^^^~^^^^~^^^^^^^^^^~^^^^^~^^^^^^~^^^^^^^^^^^^^",
"^^^^^^^^^^^^^^^^^^^^^^^^^^^^^^^^^^^^^^^^^^^^^^^^^^^^^^^^^^^^^^^^"};
