/* XPM */
static char * colorful_16x16_xpm[] = {
/* Width, Height, Colors, Chars per Pixel */
"16 16 1 1",
/* Define Colors */
"g c #00FF00", /* green */

/* Pixel Data */
"                ",
"                ",
"                ",
"                ",
"                ",
"                ",
"      gggg      ",
"      gggg      ",
"      gggg      ",
"      gggg      ",
"                ",
"                ",
"                ",
"                ",
"                ",
"                "
};
