/* XPM */
static char * wallbluearcade_xpm[] = {
"64 64 38 1",
" 	c #424242",
".	c #000000",
"+	c #444444",
"@	c #2E3192",
"#	c #5B6566",
"$	c #5B665D",
"%	c #00A651",
"&	c #676352",
"*	c #FFF200",
"=	c #494949",
"-	c #675252",
";	c #9E0B0F",
">	c #4C4C4C",
",	c #18194C",
"'	c #5AABCC",
")	c #7DA7D9",
"!	c #00407F",
"~	c #0054A6",
"{	c #004D96",
"]	c #421466",
"^	c #471F66",
"/	c #191919",
"(	c #5E0508",
"_	c #660709",
":	c #C4C4C4",
"<	c #CCCCCC",
"[	c #587599",
"}	c #6F97C4",
"|	c #555555",
"1	c #303030",
"2	c #333333",
"3	c #363636",
"4	c #438099",
"5	c #003366",
"6	c #003F7F",
"7	c #191944",
"8	c #363032",
"9	c #3D3D3D",
"         .           ..            .         ....          .+   ",
"      +..+.    +++++.++.++      +..+.+++++++.++++..+++++++.+.+++",
"   +++.++++.+ ++++..+++.+++++++..++++.++++..+++++++.+++++.+ .+++",
" ++...++++++.+++..++++++.+++++.++++++.+++.+++    +++.+++.+  +.++",
"+..++++++  ++.+.++++++++.+++..+++ ++++.+.++++++++ ++.+..++ +++..",
".+++++++++ +++.++++++++++.+.++++  +++++.++++++++++ ++.+++  +++++",
"@#++++++++ ++$%$++++ +++++.++++  +++++&*&++====+++++-;-++ +++++#",
"##++++++++ ++$$$++++  +++#@#+++ ++++++&&&=======++++---++++++++#",
"##+++++++++++$$$+++++ +++###+++++++++=&&&========+++---++++++++#",
"+++++++++++++++++++++  ++###+++++++===============++++++++++++++",
"+++++ +++++++++++++++  +++++++++=============>=====+++++=====+++",
"++++  ++++++++++++++++ +++++++=======>>>=====>>================+",
"+++   ++++======++++++ ++++++======>>>>>>====>>>>>>============+",
"++   +++============++ ++++++=====>>>>>>>===>>>>>>>>===========+",
"+   +++========>>====+++++++=====>>>>>>>>>==>>>>>>>>>======+++=+",
"+  +++===>>>==>>,,,===++++++====>>>>>>>>>>==>,,,>>>>>>=>>===++++",
"  +++===>>>>>=>>,,,,,,,,,,,,,,,,,,,,,,,,,,,,,,,,>>>>>>>>>>===+++",
" +++===>>>>>>=>>,',)))))))))))))))))))))))))),',=====>>>>>===++ ",
" ++==>>>>>>>>>>>,',))..)).))).)))).))..).)))),',++++====>>>===+ ",
"+++==>>>>>>>>>>>,',)).)).).))..)))).).))..))),',++++++==>>>===+ ",
"++==>>>>>>>>>>>>,',)))))))))))))))))))))))))),',++++++==>>>>==++",
"+==>>>>>>>>>>>>>,',),,,,,,,,,,,,,,,,,,,,,,,,),',++++++=>>>>>===+",
"==>>>>>>>>>>>>>>,',,!!!!!!!!!!!!!!!!!!!!!!!!,,',+++++==>>>>>>===",
"=>>>>>>>>>>>>>>>,',~!~!~!~!~!~!~!~!~!~!~!~!~!,',++====>>>>>>>===",
"=>>>>>>>>>>>>>>>,',!~!~!~!~!~!~!~!~!~!~!~!~!{,',+==>>>>>>>>>>>==",
">>>>>>>>>>>>>>>>,',{~~]^^^^^^^^^^^^^^^^^^]{{{,',==>>>>>>>>>>>>>=",
">>>>>>>>>>>>>>=>,',{{~^^^]////////////]^^^~{{,',=>>>>>>>>>>>>>>=",
">>>>>>>>>>>>>===,',{{~^^^]////////////]^^^~~~,',>>>>>>>>>>>>>>>=",
">>>>>>>>======+=,',{{~^^^]////////////]^^^~~~,',>>>>>>>>>>>>>>>=",
"=>>==>>====++++=,',{~~^^^]////////////]^^^{~~,',>>>>>>>>>>>>>>==",
"=========+++++==,',{~~^^^]////////////]^^^{~~,',>>>>>>==========",
"======+++  +++==,',~~~^^^]////////////]^^^{~~,',>>>>===+++++>===",
"=++++++   ++====,',~~~^^^]////////////]^^^~~~,',>>===+++++++++++",
"++++    ++======,',~~~^^^]////////////]^^^~~~,',===++++    +++++",
"((((((((((((((__,',~~{^^^]////////////]^^^~~~,',___(((((((((((((",
"((((((((((((____,',!~{]^^^^^^^^^^^^^^^^^^]{~!,',____((((((((((((",
"....::::....<<<<,',!~~{{~~~~~~~~~~~~~~~~{{{{!,',....<:::....::::",
"....:::<....<<<<,',!!~~~~~~~~~~~~~~~~~{{{{~!!,',....<<::....:<<<",
"....:<<<....<<<<,',!!!!!!!!!!!!!!!!!!!!!!!!!!,',....<<<<....<<<<",
"....<<<<....<<<<,',,,,,,,,,,,,,,,,,,,,,,,,,,,,',....<<<<....<<<<",
"<<<<....<<<<....,,[[[[;;;[[[[[[[[[[[[[[[[[[[[[,,<<<<....<<<<....",
"<<<<....<<<<..,,,}}}))___)))))))..))..)}..)))}},,,<<....<<<<....",
"<<<<....<<<<..,}}}}))))|}}))))))}}))}}))}}))))}}},<<....<<<<....",
"<<<<....<<<<..,}}}}))).|.}})))))))))))))))})))))),<<....<<<<....",
"___((((_______,}}}))).....}}))))}..))..))..}))))),(______(______",
"((((((((((((((,}))))))))}}}}))))}}))}}})))})))))),(((___((((((((",
"11111111111111,))[[[[[[[[[[[[[[[[[[[[[[[[[[[[[[)),11111111111111",
"11233111333313,[[[[[[[[[[[[[[[[[[[[[[[[[[[[[[[[[[,12333211132211",
"12333311333333,,,,,,,,,,,,,,,,,,,,,,,,,,,,,,,,,,,,23333211333322",
"2333331333333333,4,55555555555555555555555555,4,2133333321333332",
"2333333333333333,4,55555555555555555555555555,4,3233333321333333",
"3333333333333333,4,56565656565656565656565656,4,3333333332333333",
"3333333333333333,4,66677776666666666666666666,4,3333333333333333",
"3333333332333333,4,6~67.7766~6~6~6{6{6~6{6{66,4,3333333333332333",
"3333333332333333,4,~~~7.776{~~~~~~~{{{~~~~~{6,4,3333332333332233",
"3333333331233333,4,~~~7777{{{~~~~~~~~~~~~~~~{,4,3333328333321233",
"2333333321223333,4,~~~~~~{{~~~~~~~~~~~~~~~~~~,',3333218233321233",
"1233333321123333,',~~~~~~~~~~~~~~~~~~~~~~~~~~,',3333218233221233",
"8123333218123332,',{~~~~~~~~~~~~~~~~~~~~~~~{~,',2333218232218232",
"8122333288122332,',{{~~~~~~~~~~~~~~~~~~~~~{{{,',2332288222218121",
"8112333288122332,',{{{~~~~~~~~~~~~~~~~~~~{{{{,',..32188222999128",
"8811223288812228,',6{{{{~~~~~~~~~~~~~~~~{{{{6,',82..888821..9818",
"8881182888811188,',66666666666666666666666666,',8818.8888.999888",
"8888888888888888,,,,,,,,,,,,,,,,,,,,,,,,,,,,,,,,88888....8888888"};
